<?xml version="1.0" standalone="no"?>
<!DOCTYPE svg PUBLIC "-//W3C//DTD SVG 1.1//EN" "http://www.w3.org/Graphics/SVG/1.1/DTD/svg11.dtd" >
<!--
2013-9-30: Created.
-->
<svg>
<metadata>
Created by iconfont
</metadata>
<defs>

<font id="iconfont" horiz-adv-x="1024" >
  <font-face
    font-family="iconfont"
    font-weight="500"
    font-stretch="normal"
    units-per-em="1024"
    ascent="896"
    descent="-128"
  />
    <missing-glyph />
    
    <glyph glyph-name="hosjoy_date" unicode="&#58891;" d="M888.021333 768H768v27.989333a35.968 35.968 0 1 1-72.021333 0V768H328.021333v27.989333a35.968 35.968 0 1 1-71.978666 0V768H135.978667C96.256 768 64 735.786667 64 695.978667v-688c0-39.765333 32.213333-71.978667 72.021333-71.978667h752c39.765333 0 71.978667 32.298667 71.978667 72.021333V695.978667C960 735.744 927.786667 768 887.978667 768zM136.021333 695.978667H256v-19.968a35.968 35.968 0 1 1 72.021333 0v19.968h368v-19.968a35.968 35.968 0 1 1 71.978667 0v19.968h120.021333v-112H136.021333V695.978667z m752-688H136.021333V512h752v-504.021333zM288 384h448a32 32 0 1 0 0-64H288a32 32 0 1 0 0 64z m0-194.005333h234.666667a32 32 0 1 0 0-64h-234.666667a32 32 0 1 0 0 64z"  horiz-adv-x="1024" />

    
    <glyph glyph-name="hosjoy_account" unicode="&#58892;" d="M858.496 132.394667a374.016 374.016 0 0 1-80.597333 119.466666 375.637333 375.637333 0 0 1-119.466667 80.64c-0.426667 0.213333-0.853333 0.298667-1.237333 0.512A247.936 247.936 0 0 1 512 781.994667a247.936 247.936 0 0 1-145.194667-449.109334l-1.194666-0.469333a372.394667 372.394667 0 0 1-119.509334-80.64 375.637333 375.637333 0 0 1-80.64-119.466667 371.712 371.712 0 0 1-29.44-138.112 8.021333 8.021333 0 0 1 7.978667-8.192h59.989333a7.978667 7.978667 0 0 1 8.021334 7.808 298.112 298.112 0 0 0 87.808 204.288A298.026667 298.026667 0 0 0 512 285.994667c80.213333 0 155.52-31.189333 212.181333-87.893334a298.112 298.112 0 0 0 87.808-204.288 7.936 7.936 0 0 1 8.021334-7.808h59.989333c4.48 0 8.106667 3.712 8.021333 8.192a372.650667 372.650667 0 0 1-29.525333 138.24zM512 361.984a170.88 170.88 0 0 0-121.6 50.432 170.88 170.88 0 0 0-50.389333 121.6c0 45.866667 17.92 89.088 50.389333 121.6A170.88 170.88 0 0 0 512 705.962667c45.909333 0 89.088-17.877333 121.6-50.346667a170.88 170.88 0 0 0 50.389333-121.6c0-45.909333-17.92-89.130667-50.389333-121.6A170.88 170.88 0 0 0 512 361.984z"  horiz-adv-x="1024" />

    
    <glyph glyph-name="hosjoy_down" unicode="&#58893;" d="M895.701333 595.882667c0-9.6-3.2-19.285333-9.6-27.392l-340.906666-423.808a43.733333 43.733333 0 0 0-68.096 0L137.984 566.698667A43.690667 43.690667 0 0 0 206.08 621.397333l305.109333-379.605333 306.773334 381.525333a43.690667 43.690667 0 0 0 77.738666-27.434666z"  horiz-adv-x="1024" />

    
    <glyph glyph-name="hosjoy_goods" unicode="&#58894;" d="M209.066667 719.701333L483.328 877.653333a64 64 0 0 0 63.872 0l272.64-156.970666a64 64 0 0 0 0-110.933334l-274.261333-157.866666a64 64 0 0 0-63.872 0L209.066667 608.725333a64 64 0 0 0 0 110.933334z m-39.978667-172.117333l274.261333-157.909333a64 64 0 0 0 32.085334-55.466667v-314.112a64 64 0 0 0-95.957334-55.466667l-274.261333 157.866667a64 64 0 0 0-32.085333 55.466667V492.16a64 64 0 0 0 95.957333 55.466667zM950.869333 490.24v-313.045333a64 64 0 0 0-32.085333-55.466667l-274.261333-157.909333a64 64 0 0 0-95.957334 55.466666v313.045334a64 64 0 0 0 32.085334 55.466666l274.261333 157.866667a64 64 0 0 0 95.957333-55.424z"  horiz-adv-x="1024" />

    
    <glyph glyph-name="hosjoy_left" unicode="&#58895;" d="M723.413333 0.298667c-9.6 0-19.328 3.2-27.392 9.6l-423.808 340.906666a43.733333 43.733333 0 0 0 0 68.096l421.973334 339.114667a43.690667 43.690667 0 0 0 54.698666-68.096L369.28 384.853333l381.525333-306.901333a43.690667 43.690667 0 0 0-27.392-77.696z"  horiz-adv-x="1024" />

    
    <glyph glyph-name="hosjoy_member" unicode="&#58896;" d="M387.413333 419.2a237.696 237.696 0 1 0 249.088 0 402.474667 402.474667 0 0 0 277.76-382.634667c0-40.405333-32.725333-73.130667-73.130666-73.130666H182.869333a73.130667 73.130667 0 0 0-73.173333 73.130666 402.474667 402.474667 0 0 0 277.76 382.634667z"  horiz-adv-x="1024" />

    
    <glyph glyph-name="hosjoy_minus" unicode="&#58897;" d="M796.501333 347.989333H227.498667a35.968 35.968 0 1 0 0 72.021334h569.002666a35.968 35.968 0 1 0 0-72.021334z"  horiz-adv-x="1024" />

    
    <glyph glyph-name="hosjoy_home" unicode="&#58898;" d="M534.613333 839.168a31.914667 31.914667 0 0 1-45.226666 0l-411.904-411.605333a64.042667 64.042667 0 0 1 45.226666-109.312h43.392v-293.674667c0-17.706667 14.293333-32 32-32H448v224h112v-224h265.898667a32 32 0 0 1 32 32v293.674667h43.392a64.085333 64.085333 0 0 1 45.226666 109.312L534.613333 839.168z"  horiz-adv-x="1024" />

    
    <glyph glyph-name="hosjoy_indent" unicode="&#58899;" d="M408.021333 453.973333h480a8.021333 8.021333 0 0 1 7.978667 8.021334V518.016a8.021333 8.021333 0 0 1-8.021333 7.978667H408.021333a8.021333 8.021333 0 0 1-7.978666-7.978667v-56.021333c0-4.394667 3.584-7.978667 8.021333-7.978667z m-8.021333-203.946666c0-4.437333 3.584-8.021333 8.021333-8.021334h480a8.021333 8.021333 0 0 1 7.978667 7.978667v56.021333a8.021333 8.021333 0 0 1-8.021333 7.978667H408.021333a8.021333 8.021333 0 0 1-7.978666-7.978667v-56.021333zM904.021333 736H120.021333a8.021333 8.021333 0 0 1-8.021333-8.021333V672c0-4.394667 3.584-8.021333 8.021333-8.021333h784a8.021333 8.021333 0 0 1 7.978667 8.021333V728.021333a8.021333 8.021333 0 0 1-8.021333 7.978667z m0-632.021333H120.021333a8.021333 8.021333 0 0 1-8.021333-7.978667v-56.021333c0-4.394667 3.584-7.978667 8.021333-7.978667h784a8.021333 8.021333 0 0 1 7.978667 8.021333V96a8.021333 8.021333 0 0 1-8.021333 8.021333z m-761.6 149.930666L298.666667 377.002667a8.832 8.832 0 0 1 0 13.909333L142.378667 514.090667A8.874667 8.874667 0 0 1 128 507.178667v-246.272c0-7.424 8.533333-11.605333 14.378667-6.997334z"  horiz-adv-x="1024" />

    
    <glyph glyph-name="hosjoy_password" unicode="&#58900;" d="M832 432h-68.010667v224a128 128 0 0 1-128 128H388.010667a128 128 0 0 1-128-128v-224H192a32 32 0 0 1-32-32v-384c0-17.706667 14.293333-32 32-32h640a32 32 0 0 1 32 32v384a32 32 0 0 1-32 32zM331.989333 656c0 30.890667 25.130667 56.021333 56.021334 56.021333h247.978666c30.890667 0 56.021333-25.130667 56.021334-56.021333v-224H331.946667v224z m460.032-600.021333H232.021333v304h560v-303.957334z m-308.053333 139.008v-52.992c0-4.394667 3.626667-7.978667 8.021333-7.978667h40.021334a8.021333 8.021333 0 0 1 7.978666 7.978667V194.986667a48 48 0 1 1-56.021333 0z"  horiz-adv-x="1024" />

    
    <glyph glyph-name="hosjoy_right" unicode="&#58901;" d="M300.586667 0.298667c9.6 0 19.328 3.2 27.434666 9.6l423.765334 340.906666a43.733333 43.733333 0 0 1 0 68.096L329.813333 758.016A43.690667 43.690667 0 0 1 275.114667 689.92l379.605333-305.109333-381.525333-306.773334a43.690667 43.690667 0 0 1 27.392-77.738666z"  horiz-adv-x="1024" />

    
    <glyph glyph-name="hosjoy_search" unicode="&#58902;" d="M970.837333-23.850667l-205.696 205.653334A382.421333 382.421333 0 0 1 853.333333 426.666667a384 384 0 0 1-384 384 384 384 0 0 1-384-384 384 384 0 0 1 384-384 382.421333 382.421333 0 0 1 244.906667 88.192l205.653333-205.653334a36.053333 36.053333 0 0 1 50.986667 0 36.266667 36.266667 0 0 1-0.042667 50.944z m-380.117333 162.986667c-38.4-16.256-79.189333-24.448-121.386667-24.448a311.296 311.296 0 0 0-220.586666 91.392A311.296 311.296 0 0 0 157.312 426.666667 311.296 311.296 0 0 0 248.746667 647.253333 311.296 311.296 0 0 0 469.333333 738.688a311.296 311.296 0 0 0 220.586667-91.392A311.296 311.296 0 0 0 781.312 426.666667a311.296 311.296 0 0 0-91.392-220.586667 310.186667 310.186667 0 0 0-99.2-66.901333z"  horiz-adv-x="1024" />

    
    <glyph glyph-name="hosjoy_operation" unicode="&#58903;" d="M950.869333 50.474667a36.565333 36.565333 0 1 0 0-73.130667H73.130667a36.565333 36.565333 0 0 0 0 73.130667h877.738666zM146.304 855.04h146.261333c20.224 0 36.565333-16.384 36.565334-36.565333v-658.304a36.565333 36.565333 0 0 0-36.565334-36.565334H146.346667a36.565333 36.565333 0 0 0-36.608 36.565334V818.474667c0 20.181333 16.384 36.565333 36.608 36.565333z m292.565333-182.869333h146.261334c20.224 0 36.565333-16.341333 36.565333-36.565334v-475.434666a36.565333 36.565333 0 0 0-36.565333-36.565334h-146.261334a36.565333 36.565333 0 0 0-36.565333 36.565334V635.605333c0 20.224 16.341333 36.565333 36.565333 36.565334z m292.565334-182.826667h146.261333c20.224 0 36.608-16.384 36.608-36.608v-292.565333a36.565333 36.565333 0 0 0-36.608-36.565334h-146.261333a36.565333 36.565333 0 0 0-36.565334 36.565334v292.565333c0 20.224 16.341333 36.608 36.565334 36.608z"  horiz-adv-x="1024" />

    
    <glyph glyph-name="hosjoy_money" unicode="&#58904;" d="M512-109.696C239.36-109.696 18.304 111.317333 18.304 384 18.304 656.64 239.317333 877.696 512 877.696c272.64 0 493.696-221.013333 493.696-493.696 0-272.64-221.013333-493.696-493.696-493.696z m69.845333 566.826667l124.842667 124.885333a36.565333 36.565333 0 0 1-51.712 51.712l-143.146667-143.146667-143.146666 143.146667A36.565333 36.565333 0 0 1 317.013333 581.973333l124.842667-124.885333H365.696a36.565333 36.565333 0 1 1 0-73.130667h109.738667v-54.869333H365.653333a36.565333 36.565333 0 1 1 0-73.130667h109.738667v-128a36.565333 36.565333 0 0 1 73.130667 0v128h109.738666a36.565333 36.565333 0 1 1 0 73.130667h-109.738666V384h109.738666a36.565333 36.565333 0 1 1 0 73.130667h-76.458666z"  horiz-adv-x="1024" />

    
    <glyph glyph-name="hosjoy_plus" unicode="&#58905;" d="M863.488 420.010667h-318.506667V730.453333a35.968 35.968 0 1 1-72.021333 0v-310.485333h-311.466667a35.968 35.968 0 1 1 0-72.021333h311.466667v-311.466667a35.968 35.968 0 1 1 72.021333 0v311.466667h318.506667a35.968 35.968 0 1 1 0 72.021333z"  horiz-adv-x="1024" />

    
    <glyph glyph-name="hosjoy_outdent" unicode="&#58906;" d="M408.021333 453.973333h480a8.021333 8.021333 0 0 1 7.978667 8.021334V518.016a8.021333 8.021333 0 0 1-8.021333 7.978667H408.021333a8.021333 8.021333 0 0 1-7.978666-7.978667v-56.021333c0-4.394667 3.584-7.978667 8.021333-7.978667z m-8.021333-203.946666c0-4.437333 3.584-8.021333 8.021333-8.021334h480a8.021333 8.021333 0 0 1 7.978667 7.978667v56.021333a8.021333 8.021333 0 0 1-8.021333 7.978667H408.021333a8.021333 8.021333 0 0 1-7.978666-7.978667v-56.021333zM904.021333 736H120.021333a8.021333 8.021333 0 0 1-8.021333-8.021333V672c0-4.394667 3.584-8.021333 8.021333-8.021333h784a8.021333 8.021333 0 0 1 7.978667 8.021333V728.021333a8.021333 8.021333 0 0 1-8.021333 7.978667z m0-632.021333H120.021333a8.021333 8.021333 0 0 1-8.021333-7.978667v-56.021333c0-4.394667 3.584-7.978667 8.021333-7.978667h784a8.021333 8.021333 0 0 1 7.978667 8.021333V96a8.021333 8.021333 0 0 1-8.021333 8.021333zM115.370667 377.088l156.288-123.093333a8.874667 8.874667 0 0 1 14.378666 6.912v246.186666c0 7.424-8.490667 11.52-14.378666 6.912l-156.288-123.093333a8.746667 8.746667 0 0 1 0-13.824z"  horiz-adv-x="1024" />

    
    <glyph glyph-name="hosjoy_store" unicode="&#58907;" d="M877.696 388.821333v-355.456c0-20.394667-2.346667-32.64-9.173333-45.44-6.613333-12.330667-16.512-22.186667-28.842667-28.8-12.8-6.826667-25.045333-9.216-45.44-9.216H229.76c-20.394667 0-32.64 2.346667-45.44 9.216a69.802667 69.802667 0 0 0-28.842667 28.8c-6.826667 12.8-9.173333 25.045333-9.173333 45.44v356.48c-58.197333 7.466667-103.509333 52.565333-109.525333 108.8a33.962667 33.962667 0 0 0 2.048 15.786667l96.298666 252.16c5.546667 14.677333 20.565333 24.448 37.376 24.448h678.613334c16.810667 0 31.786667-9.813333 37.376-24.405333l96.298666-252.202667c1.066667-2.773333 1.749333-5.632 2.048-8.533333 6.656-61.909333-44.8-115.157333-109.141333-117.077334z m-73.130667 19.2a119.637333 119.637333 0 0 0-49.749333 58.453334c-17.493333-44.928-63.573333-77.738667-119.210667-77.738667-54.314667 0-101.504 32-119.253333 77.696-17.493333-44.885333-63.573333-77.653333-119.168-77.653333-52.138667 0-97.706667 29.44-116.992 72.192a122.154667 122.154667 0 0 0-60.757333-60.16v-367.445334c0-6.613333 0.085333-8.96 0.256-10.069333 1.066667-0.170667 3.413333-0.256 10.069333-0.256h564.48c6.656 0 8.96 0.085333 10.069333 0.256 0.170667 1.109333 0.256 3.413333 0.256 10.069333v374.613334z"  horiz-adv-x="1024" />

    
    <glyph glyph-name="hosjoy_return" unicode="&#58908;" d="M852.821333 427.989333H279.04l216.32 208.213334a43.946667 43.946667 0 1 1-61.013333 63.402666l-294.570667-283.093333a44.032 44.032 0 0 1 0-63.402667l296.192-284.714666a43.818667 43.818667 0 0 1 62.208 1.194666 44.032 44.032 0 0 1-1.237333 62.208l-216.362667 208 573.184 0.213334c23.381333 0 42.496 18.304 43.904 41.301333 1.493333 25.472-19.413333 46.677333-44.885333 46.677333z"  horiz-adv-x="1024" />

    
    <glyph glyph-name="hosjoy_help" unicode="&#58909;" d="M512 896C229.205333 896 0 666.794667 0 384s229.205333-512 512-512 512 229.205333 512 512S794.794667 896 512 896z m311.082667-823.082667a437.717333 437.717333 0 0 0-139.904-94.293333c-54.186667-23.04-111.786667-34.602667-171.178667-34.602667-59.392 0-116.992 11.562667-171.221333 34.474667a440.448 440.448 0 0 0-139.861334 94.293333 437.717333 437.717333 0 0 0-94.293333 139.946667A436.608 436.608 0 0 0 71.936 384c0 59.392 11.605333 116.992 34.56 171.221333a440.448 440.448 0 0 0 94.293333 139.861334 437.717333 437.717333 0 0 0 139.861334 94.293333c54.314667 23.04 111.914667 34.645333 171.306666 34.645333 59.392 0 116.992-11.605333 171.178667-34.56 52.437333-22.186667 99.413333-53.845333 139.946667-94.293333 40.362667-40.362667 72.192-87.466667 94.293333-139.861333 22.997333-54.314667 34.56-111.914667 34.56-171.306667a437.461333 437.461333 0 0 0-128.853333-311.082667z m-316.288 159.146667c-1.194667 0-2.389333 0.128-3.584 0.256a36.053333 36.053333 0 0 0-32.298667 39.381333c4.906667 49.92 41.472 90.197333 81.792 130.517334 64.512 64.469333 65.578667 84.992 66.688 106.666666a92.586667 92.586667 0 0 1-26.410667 69.12 112.341333 112.341333 0 0 1-81.194666 34.56h-0.170667a107.690667 107.690667 0 0 1-107.306667-107.477333 35.968 35.968 0 1 0-72.021333 0A178.346667 178.346667 0 0 0 384.682667 631.893333a178.261333 178.261333 0 0 0 126.72 52.693334 184.746667 184.746667 0 0 0 133.802666-57.002667c32.085333-33.792 48.512-77.269333 46.08-122.453333-2.474667-46.336-16.682667-82.816-87.68-153.813334-36.010667-36.010667-58.709333-63.018667-61.013333-86.698666a36.010667 36.010667 0 0 0-35.797333-32.512z m-44.586667-105.258667a43.306667 43.306667 0 1 1 86.613333 0 43.306667 43.306667 0 0 1-86.613333 0z"  horiz-adv-x="1024" />

    
    <glyph glyph-name="hosjoy_order" unicode="&#58910;" d="M768 786.304h73.130667c40.405333 0 73.173333-32.768 73.173333-73.173333V18.346667c0-40.405333-32.768-73.173333-73.173333-73.173334H182.869333A73.130667 73.130667 0 0 0 109.653333 18.346667V713.130667c0 40.405333 32.768 73.173333 73.173334 73.173333H256v-73.173333a36.565333 36.565333 0 0 1 73.130667 0V786.346667h365.738666v-73.173334a36.565333 36.565333 0 1 1 73.130667 0V786.346667zM320.853333 566.869333c-25.728 0-46.549333-16.384-46.549333-36.565333 0-20.224 20.821333-36.608 46.506667-36.608h382.378666c25.685333 0 46.506667 16.384 46.506667 36.608 0 20.181333-20.821333 36.565333-46.506667 36.565333H320.810667z m-9.984-164.565333a36.565333 36.565333 0 1 1 0-73.173333h402.261334a36.565333 36.565333 0 0 1 0 73.173333H310.869333z m0-164.608a36.565333 36.565333 0 0 1 0-73.130667h256a36.565333 36.565333 0 1 1 0 73.130667h-256zM256 786.346667V859.434667a36.565333 36.565333 0 0 0 73.130667 0v-73.130667H256z m438.869333 0V859.434667a36.565333 36.565333 0 1 0 73.130667 0v-73.130667h-73.130667z"  horiz-adv-x="1066" />

    
    <glyph glyph-name="hosjoy_up" unicode="&#58911;" d="M895.701333 172.117333c0 9.6-3.2 19.285333-9.6 27.392l-340.906666 423.808a43.733333 43.733333 0 0 1-68.096 0l-339.114667-422.016a43.690667 43.690667 0 0 1 68.096-54.698666l305.109333 379.605333 306.773334-381.525333a43.690667 43.690667 0 0 1 77.738666 27.434666z"  horiz-adv-x="1024" />

    
    <glyph glyph-name="hosjoy_set" unicode="&#58912;" d="M438.869333 742.4V786.304a73.130667 73.130667 0 1 0 146.261334 0V742.4a363.648 363.648 0 0 0 128.554666-53.290667l31.061334 31.061334a73.130667 73.130667 0 0 0 103.424-103.424l-31.061334-31.061334a363.648 363.648 0 0 0 53.290667-128.554666h43.904a73.130667 73.130667 0 1 0 0-146.261334H870.4a363.648 363.648 0 0 0-53.290667-128.554666l31.061334-31.061334a73.130667 73.130667 0 1 0-103.424-103.424l-31.061334 31.061334a363.648 363.648 0 0 0-128.554666-53.290667v-43.904a73.130667 73.130667 0 1 0-146.261334 0V25.6a363.648 363.648 0 0 0-128.554666 53.290667l-31.061334-31.061334a73.130667 73.130667 0 1 0-103.424 103.424l31.061334 31.061334A363.648 363.648 0 0 0 153.6 310.869333H109.696a73.130667 73.130667 0 1 0 0 146.261334H153.6a363.648 363.648 0 0 0 53.290667 128.554666l-31.061334 31.061334a73.130667 73.130667 0 0 0 103.424 103.424l31.061334-31.061334A363.648 363.648 0 0 0 438.869333 742.4zM512 128a256 256 0 1 1 0 512 256 256 0 0 1 0-512z m0 109.696a146.304 146.304 0 1 0 0 292.608 146.304 146.304 0 0 0 0-292.608z"  horiz-adv-x="1024" />

    
    <glyph glyph-name="hosjoy_cloud_service" unicode="&#58884;" d="M808.021333 85.333333s151.552-0.170667 172.8 144.768c10.197333 158.506667-146.474667 189.738667-146.474666 189.738667s17.834667 234.666667-202.112 261.376c-188.544 18.816-245.888-152.405333-245.888-152.405333s-56.746667 53.333333-133.802667 9.813333c-68.949333-41.642667-56.746667-117.76-56.746667-117.76S42.666667 391.722667 42.666667 239.146667C46.08 86.869333 208.938667 85.333333 208.938667 85.333333h599.04z"  horiz-adv-x="1024" />

    
    <glyph glyph-name="hosjoy_permissions" unicode="&#58885;" d="M720.042667 335.189333c-75.946667 0-139.733333 65.066667-139.733334 149.674667s60.757333 149.717333 139.733334 149.717333c78.933333 0 139.733333-65.109333 139.733333-149.717333 0-84.608-63.786667-149.674667-139.733333-149.674667z m33.408-29.312c139.733333 0 230.826667-146.432 227.84-244.053333 0-35.797333-27.349333-61.824-57.728-61.824h-97.237334c-51.2 0-51.2 65.450667-72.874666 138.410667-21.674667 72.96-30.378667 86.058667-45.738667 121.941333-15.36 35.925333 15.36 45.525333 33.578667 45.525333h12.16z m-367.530667 91.136c-97.194667 0-176.213333 84.608-176.213333 185.514667C209.749333 683.392 288.768 768 382.890667 768c94.165333 0 173.141333-84.608 173.141333-185.472 0-100.906667-75.946667-185.514667-170.069333-185.514667zM659.285333 0H109.482667C73.045333 0 42.666667 32.554667 42.666667 71.594667 42.666667 198.528 158.08 384 334.250667 384h94.165333c179.2 0 291.626667-185.472 291.626667-312.405333A61.738667 61.738667 0 0 0 659.285333 0z"  horiz-adv-x="1024" />

    
    <glyph glyph-name="hosjoy_stay_online" unicode="&#58886;" d="M964.266667 846.976c-17.066667 8.490667-34.133333 8.490667-42.666667 0l-853.333333-423.765333c-17.066667 0-25.6-16.981333-25.6-33.92s8.533333-33.877333 17.066666-33.877334l204.8-127.146666c17.066667-8.490667 34.133333-8.490667 51.2 8.490666L768 643.584l17.066667-8.533333-409.6-432.213334c-8.533333-8.490667-8.533333-16.938667-8.533334-25.429333v-186.453333c0-16.938667 8.533333-33.92 25.6-42.368 17.066667-8.533333 34.133333 0 42.666667 8.448l102.4 101.717333 204.8-135.594667c8.533333-8.490667 17.066667-8.490667 25.6-8.490666h17.066667c17.066667 8.490667 25.6 16.938667 25.6 33.92l170.666666 847.530666c0 25.429333 0 42.368-17.066666 50.858667z"  horiz-adv-x="1024" />

    
    <glyph glyph-name="hosjoy_eye" unicode="&#58887;" d="M933.034667 388.010667C840.234667 584.021333 699.989333 682.666667 512 682.666667c-188.117333 0-328.234667-98.645333-421.034667-294.784a59.306667 59.306667 0 0 1 0-50.56C183.765333 141.312 324.010667 42.666667 512 42.666667c188.117333 0 328.234667 98.645333 421.034667 294.784a59.306667 59.306667 0 0 1 0 50.56zM512 113.322667c-157.866667 0-273.450667 80.298667-354.986667 249.344C238.592 531.712 354.133333 612.010667 512 612.010667s273.450667-80.298667 354.986667-249.344c-81.493333-169.045333-197.034667-249.344-354.986667-249.344z m-3.925333 422.101333A172.501333 172.501333 0 0 1 335.829333 362.666667a172.501333 172.501333 0 0 1 172.245334-172.8 172.501333 172.501333 0 0 1 172.245333 172.8 172.501333 172.501333 0 0 1-172.245333 172.8z m0-282.709333A109.738667 109.738667 0 0 0 398.506667 362.666667a109.738667 109.738667 0 0 0 109.653333 109.952 109.738667 109.738667 0 0 0 109.568-109.952 109.738667 109.738667 0 0 0-109.610667-109.952z"  horiz-adv-x="1024" />

    
    <glyph glyph-name="hosjoy_eye_close" unicode="&#58888;" d="M933.12 392.533333l-0.128 0.128-0.085333 0.085334c-35.626667 76.416-78.293333 138.154667-127.914667 185.301333l-49.621333-50.602667c42.794667-40.064 79.786667-93.354667 111.658666-160.298666-81.493333-171.605333-197.12-253.056-355.029333-253.056-50.218667 0-96.213333 8.234667-138.197333 25.002666l-53.504-54.485333c57.216-28.117333 121.045333-42.24 191.701333-42.24 188.074667 0 328.234667 100.096 420.992 299.093333 7.552 16.128 7.552 34.858667 0.128 51.114667z m-62.634667 330.922667l-41.514666 42.24a7.765333 7.765333 0 0 1-11.093334 0L703.658667 649.386667c-57.173333 28.202667-120.96 42.368-191.616 42.368-188.117333 0-328.234667-100.138667-421.034667-299.093334-7.509333-16.256-7.509333-35.2 0-51.413333 35.626667-76.416 78.293333-138.154667 127.914667-185.386667l-98.56-100.096a8.106667 8.106667 0 0 1 0-11.264l41.514666-42.24a7.765333 7.765333 0 0 1 11.093334 0l697.557333 709.973334a7.978667 7.978667 0 0 1 0 11.178666zM401.322667 341.76a113.834667 113.834667 0 0 0-2.858667 25.301333c0 61.653333 49.066667 111.573333 109.653333 111.573334 8.490667 0 16.896-1.024 24.832-2.901334l-131.626666-133.973333z m180.565333 183.765333a169.898667 169.898667 0 0 1-73.813333 16.853334c-95.146667 0-172.245333-78.506667-172.245334-175.317334 0-26.88 5.973333-52.266667 16.554667-75.093333l-83.797333-85.248c-42.752 40.021333-79.744 93.312-111.658667 160.256C238.549333 538.581333 354.133333 620.074667 512 620.074667c50.218667 0 96.213333-8.277333 138.197333-25.002667l-68.309333-69.546667z m-73.813333-269.994666a101.973333 101.973333 0 0 0-18.389334 1.578666l-50.005333-50.901333c20.906667-9.258667 44.117333-14.336 68.394667-14.336 95.146667 0 172.245333 78.506667 172.245333 175.274667a177.066667 177.066667 0 0 1-14.08 69.632l-50.005333-50.901334c0.981333-6.058667 1.536-12.373333 1.536-18.730666-0.085333-61.738667-49.109333-111.616-109.653334-111.616z"  horiz-adv-x="1024" />

    
    <glyph glyph-name="hosjoy_right1" unicode="&#58889;" d="M512 853.333333C252.8 853.333333 42.666667 643.2 42.666667 384s210.133333-469.333333 469.333333-469.333333 469.333333 210.133333 469.333333 469.333333S771.2 853.333333 512 853.333333z m326.4-315.136l-392.832-347.306666a32.512 32.512 0 0 0-42.837333 0l-150.058667 130.304a25.770667 25.770667 0 0 0 0 38.912 32.512 32.512 0 0 0 42.837333 0l128.682667-110.890667 371.328 327.893333a32.512 32.512 0 0 0 42.837333 0 25.770667 25.770667 0 0 0 0-38.912z"  horiz-adv-x="1024" />

    


  </font>
</defs>
</svg>
